 <svg width="40" height="40" viewBox="0 0 40 40" fill="none" xmlns="http://www.w3.org/2000/svg">
    <rect x="0.5" y="0.5" width="39" height="39" rx="19.5" stroke="black"/>
    <mask id="mask0_570_6939" style="mask-type:luminance" maskUnits="userSpaceOnUse" x="10" y="10" width="20" height="20">
    <path d="M10 10H30V30H10V10Z" fill="white"/>
    </mask>
    <g mask="url(#mask0_570_6939)">
    <path d="M21.8842 10.1477L21.2842 10.0635C19.481 9.80313 17.6409 10.0607 15.9785 10.8062C14.316 11.5517 12.8998 12.7543 11.8947 14.274C10.8254 15.7266 10.188 17.4516 10.0558 19.2505C9.92355 21.0494 10.3019 22.8491 11.1474 24.4424C11.2339 24.6021 11.2878 24.7774 11.3058 24.9582C11.3239 25.1389 11.3058 25.3214 11.2526 25.4951C10.8211 26.9793 10.4211 28.474 10 30.0424L10.5263 29.8845C11.9474 29.5056 13.3684 29.1266 14.7895 28.7793C15.0894 28.7169 15.4012 28.7463 15.6842 28.8635C16.9592 29.4857 18.3524 29.828 19.7706 29.8675C21.1887 29.9069 22.5989 29.6426 23.9064 29.0921C25.214 28.5417 26.3887 27.718 27.3517 26.6762C28.3147 25.6345 29.0437 24.3988 29.4898 23.0521C29.936 21.7053 30.0889 20.2788 29.9383 18.8681C29.7877 17.4575 29.3371 16.0953 28.6168 14.8731C27.8964 13.6509 26.923 12.597 25.7618 11.7819C24.6006 10.9669 23.2785 10.4097 21.8842 10.1477ZM24.5368 23.9582C24.1543 24.3007 23.6877 24.5357 23.1848 24.6393C22.6819 24.7428 22.1604 24.7112 21.6737 24.5477C19.4684 23.9258 17.555 22.542 16.2737 20.6424C15.7844 19.9704 15.3911 19.2335 15.1053 18.453C14.9504 18.0001 14.9224 17.5135 15.0245 17.0458C15.1266 16.5782 15.3547 16.1475 15.6842 15.8003C15.8446 15.5956 16.063 15.4439 16.3108 15.3651C16.5586 15.2862 16.8245 15.2838 17.0737 15.3582C17.2842 15.4109 17.4316 15.7161 17.6211 15.9477C17.7754 16.3828 17.9544 16.8073 18.1579 17.2214C18.312 17.4324 18.3764 17.6959 18.337 17.9543C18.2975 18.2126 18.1575 18.4449 17.9474 18.6003C17.4737 19.0214 17.5474 19.3687 17.8842 19.8424C18.6285 20.9156 19.6561 21.7611 20.8526 22.2845C21.1895 22.4319 21.4421 22.4635 21.6632 22.1161C21.7579 21.9793 21.8842 21.8635 21.9895 21.7372C22.6 20.9687 22.4105 20.9793 23.3789 21.4003C23.6877 21.5302 23.986 21.681 24.2737 21.853C24.5579 22.0214 24.9895 22.2003 25.0526 22.453C25.1134 22.727 25.0974 23.0126 25.0064 23.2781C24.9154 23.5437 24.7529 23.779 24.5368 23.9582Z" fill="#3D3D3D"/>
    </g>
  </svg>